<svg xmlns="http://www.w3.org/2000/svg" viewBox="0 0 97 97"><defs><style>.cls-1{fill:#d90008;}.cls-2{fill:#1d1d18;}</style></defs><g id="Layer_2" data-name="Layer 2"><g id="Layer_1-2" data-name="Layer 1"><path class="cls-1" d="M37.28,72l-2.64-.88-2-4.1,2.63-4.1,4.4-2.93L13.55,62,10,60.82,34.64,50.56v-7l5.52-9.59L29.66,19.21l9.67-4.63,3.08,2.88V14.58H54.86l2.19,2.58,2.49-2.58L71,19.21l.29,7.62,5-1.46,4.1,7.47,4.11,3.66v5.57l-11.14,3.4v7.44l-4.44,10L58.67,69,54,80.16V96.69a48.5,48.5,0,1,0-31.45-7.23L30,79Z"/><path class="cls-2" d="M54,96.69V80.16L58.67,69l10.2-6.15,4.44-10V45.47l11.14-3.4V36.5l-4.11-3.66-4.1-7.47-5,1.46L71,19.21,59.54,14.58l-2.49,2.58-2.19-2.58H42.41v2.88l-3.08-2.88-9.67,4.63,10.5,14.73-5.52,9.59v7L10,60.82,13.55,62l26.07-2.05-4.4,2.93L32.59,67l2,4.1,2.64.88L30,79,22.53,89.46A48.26,48.26,0,0,0,48.5,97,49.63,49.63,0,0,0,54,96.69Z"/><polygon class="cls-1" points="54.82 42.02 46.52 46.17 49.97 47.94 59.56 45.67 61 42.62 54.82 42.02 54.82 42.02"/></g></g></svg>