<svg xmlns="http://www.w3.org/2000/svg" viewBox="0 0 500.41 829.56"><defs><style>.cls-1{fill:#1d1d18;}.cls-2{fill:#ffed00;}.cls-3{fill:#e30513;}.cls-4{fill:#b2b2b2;}.cls-5{fill:#f6f6f6;}</style></defs><g id="Layer_2" data-name="Layer 2"><g id="Layer_1-2" data-name="Layer 1"><path class="cls-1" d="M250.21,635l-34.77-.68-.69-20.71,2.67-31.14,32.79,34.35V635ZM132.65,815.48l23.9-3,27.37-1.07-51.27,4.1Zm325-361.23-80.19-28.87,22.44-7.48-62-22.46L214.75,324.87l-38.32-11.76-16,11.76V239.33L177.5,198.7l37.25-22.46L231,139.89V112.77l40.64-12.44V80l-15-13.36-15-27.27-18.18,5.35-1.05-27.8L180.7,0l-9.08,9.44-8-9.44H118.19V10.51L106.93,0,71.65,16.93,110,70.66l-20.15,35v25.67L0,168.76,12.84,173,108,165.55,92,176.24l-9.63,15,7.49,15,9.63,3.21L72.71,235.05,18.17,312,5.35,393.84,48.3,468.15l25.49,21.39-3.22-11.77,40.64,38.5,40.63,13.9,22.35,16.54,8.57,86.93-97.21-1.89-50.26,16L6.41,677.72,0,715.15l20.33,16-7.49-15v-16l10.68-13.9,5.36,35.29,19.42,9.62-6.6-13.9V685.21L61,717.29V691.63l28.87-29.94,96,3L198.7,795.34,139,802.83l-23,14-12.31,1-9.63,11.76h41.7l72.73-7.48,94.09,7.48-72.73-29.94-9.6-22.45L216.5,665.65l78.62,2.45L305.81,636l-32.07-47-3.22-24.6,18.17-8.55,47.05,4.28,23.52,7.48,7.49,24.6L356.07,620l13.9-4.27,18.17-25.66,3.21-35.29,7.49,26.73-15,47-26.74,29.94-37.42,11.76,22.46,7.48,36.34-16-5.33,10.69-27.81,12.83,23.52-1.07,21.39-7.48L371,694.83l-25.66,6.42,35.28-2.14,23.52-22.45-2.13,16-28.86,24.6,56.66-18.18,41.71-42.77,23.52-41.7,5.34-77-42.76-83.4Z"/><polygon class="cls-1" points="127.13 821.38 138.36 807.35 171.45 804.54 193.89 806.75 193.89 814.37 176.86 821.38 144.98 821.38 127.13 821.38 127.13 821.38"/><polygon class="cls-2" points="118.19 0 118.19 10.51 145.98 52.52 180.47 52.52 209.34 70.66 223.47 44.73 222.42 16.93 180.7 0 171.62 9.44 163.61 0 118.19 0 118.19 0"/><polygon class="cls-3" points="209.34 70.66 223.47 44.73 241.65 39.38 256.62 66.65 271.6 80.01 271.6 100.33 230.96 112.77 223.47 87.81 209.34 70.66 209.34 70.66"/><polygon class="cls-3" points="141.16 0 118.19 0 118.19 10.51 106.93 0 71.65 16.93 109.97 70.66 120.32 59.34 145.98 52.52 141.16 0 141.16 0"/><polygon class="cls-3" points="107.99 165.55 137.3 161.99 125.54 184.44 115.91 195.13 113.23 204.76 99.45 209.39 89.82 206.19 82.33 191.21 91.96 176.24 107.99 165.55 107.99 165.55"/><polygon class="cls-3" points="287.52 506.82 359.26 567.59 366.75 592.18 356.07 619.98 369.97 615.71 388.14 590.05 391.36 554.76 398.84 581.49 383.87 628.54 357.13 658.48 319.7 670.24 342.17 677.73 378.51 661.69 373.18 672.38 345.37 685.21 368.89 684.14 390.28 676.66 371.03 694.83 345.37 701.25 380.65 699.11 404.18 676.66 402.04 692.69 373.18 717.29 429.83 699.11 471.55 656.34 495.07 614.64 500.41 537.65 457.65 454.25 377.45 425.38 269.35 426 255.98 477.42 287.52 506.82 287.52 506.82"/><polygon class="cls-4" points="160.39 324.87 145.98 376.11 170.82 431.44 225.34 485.17 287.52 506.82 335.64 533.29 327.63 508.43 306.77 481.96 341.25 493.99 367.71 508.43 377.34 538.9 388.57 512.44 388.57 485.97 370.12 461.91 398.2 472.34 427.05 486.77 441.5 504.42 434.29 468.33 423.05 451.49 412.82 438.12 377.45 425.38 399.9 417.9 337.88 395.44 214.75 324.87 176.43 313.11 160.39 324.87 160.39 324.87"/><polygon class="cls-5" points="180.05 376.91 199.3 421.82 225.34 445.07 250.21 465.92 271.6 473.94 293.73 489.98 288.32 466.73 271.6 446.68 300.36 459.51 322 473.14 343.66 477.95 365.3 489.98 358.09 466.73 342.86 451.49 323.61 441.87 313.98 426 334.84 437.86 365.3 443.47 349.27 426 328.43 407.38 279.5 386.53 214.75 361.67 188.09 352.85 180.05 376.91 180.05 376.91"/><polygon class="cls-4" points="91.31 257.15 45.87 313.11 35.72 387.06 49.09 421.42 88.64 459.77 77.94 431.44 105.21 445.34 126.6 466.19 137.3 493.46 145.98 465.12 141.57 421.42 116.44 377.98 119.11 344.83 133.56 313.11 133.56 261.96 123.4 236.84 91.31 257.15 91.31 257.15"/><polygon class="cls-4" points="187.54 518.58 193.89 558.68 217.42 582.43 240.84 606.96 229.26 584.88 230.32 562.77 237.8 585.95 262.39 612.68 250.21 582.43 252.78 551.2 220.16 518.58 197.17 507.89 187.54 518.58 187.54 518.58"/><polygon class="cls-3" points="155.33 96.23 127.13 110.36 138.85 116.38 171.43 108.64 176.33 98.28 155.33 96.23 155.33 96.23"/><polygon class="cls-4" points="195.56 107.35 190.76 126.1 180.05 135.72 161.35 142.14 180.05 150.69 195.56 150.69 189.15 159.78 176.33 164.59 170.82 164.59 176.33 168.87 191.29 171.54 206.26 162.99 219.63 134.65 219.63 107.35 209.34 87.6 187.01 70.66 195.56 107.35 195.56 107.35"/></g></g></svg>