<svg xmlns="http://www.w3.org/2000/svg" viewBox="0 0 583.67 214.44"><defs><style>.cls-1{fill:#1d1d18;}</style></defs><g id="Layer_2" data-name="Layer 2"><g id="Layer_1-2" data-name="Layer 1"><polygon class="cls-1" points="42.14 0 42.14 101.22 56.7 115.09 111.98 115.09 111.98 0.13 93.1 8.73 94.99 96.37 64.52 96.37 59.13 90.97 59.13 0.24 42.14 0 42.14 0"/><polygon class="cls-1" points="188.02 0 189.45 16.83 143.53 26.8 137.06 40.06 139.75 84.77 155.12 99.87 186.4 99.87 192.06 78.03 163.75 82.94 160.25 76.41 200.15 57.55 210.75 68.05 204.2 108.23 187.38 114.97 142.99 114.97 121.06 91.51 118.92 26.8 130.31 11.16 188.02 0 188.02 0"/><path class="cls-1" d="M239.52,74.25l-5.28-11.86,2.85-28.58,7-11.87,5.12,5.94,5.66,46.37ZM256.51,0H242.22L230.38,11.29l-20.72,103.8h18.11L233,89.35l23.24.54L260.82,115h22.33L256.51,0Z"/><path class="cls-1" d="M348.46,0l-.79,84.12c-9.39-12.77-28.18-38.36-38.28-52.42L306.93,9.27,291,0,279.7.24,295.34,115h23.19L313,64.6l34.48,39.63-.1,10.86h18.34l5.66-115L348.46,0Z"/><path class="cls-1" d="M441.22,86.66,409.13,98.52q-2.83-40.44-5.66-80.89L433.4,33l13.48,28.5-5.66,25.16ZM450.91,26,415.06.24,380.47.13l6,114.84h32.9l35.05-14,11-40-14.5-35Z"/><path class="cls-1" d="M488,80.05l6-46.51,10.24-4.86,8.16,47.74L488,80.05Zm31,35,22.44-.12L513.82,6,495.69,0,481.4.24,463.6,115h19.91l3.07-23.7,29,3.35,3.5,20.47Z"/><path class="cls-1" d="M178.28,175.55a4,4,0,0,0,.94-.1,2,2,0,0,0,.94-.59,1.52,1.52,0,0,0,.15-.84.73.73,0,0,1,.15-.64q.49-.8.39-1a1.81,1.81,0,0,1-.1-.7,3.06,3.06,0,0,0-.34-1.23,4.22,4.22,0,0,0-.84-1.24c-.33-.33-.56-.49-.69-.49a5.59,5.59,0,0,0-1.29.49,4.22,4.22,0,0,0-.69,2.87c0,.13,0,.43-.05.89a3.23,3.23,0,0,0,.15,1.29c0,.13.16.38.49.74s.59.54.79.54Zm-15.22-10.88a7.46,7.46,0,0,1,.34-1.28,5.44,5.44,0,0,1,.45-1.19,7.78,7.78,0,0,0,.29-.84,4.38,4.38,0,0,1,.6-1c.26-.32.61-.72,1-1.18a11.82,11.82,0,0,0,.84-1,6.72,6.72,0,0,1,.89-1.09,4.54,4.54,0,0,1,1.18-1,7.22,7.22,0,0,0,1.29-1c.92-.26,1.73-.52,2.42-.79a5.75,5.75,0,0,1,2-.39c1.31,0,2.58,0,3.8.1a11.27,11.27,0,0,1,3.22.59,7.61,7.61,0,0,1,2.47.35,16.76,16.76,0,0,1,2,.84,3.81,3.81,0,0,0,1.28,1.53,8.92,8.92,0,0,1,1.29,1l.59.59a1.24,1.24,0,0,0,.64-1.09,2.41,2.41,0,0,1,.15-1.08,3.49,3.49,0,0,0,.2-1,.87.87,0,0,1,.2-.65,1.68,1.68,0,0,1,.69-.05,5.16,5.16,0,0,0,.79.05c.59,0,1.35,0,2.27-.09a6.43,6.43,0,0,1,2.08.09,1.37,1.37,0,0,1,.39.35.71.71,0,0,1,.2.35v.69c0,.39,0,.91.05,1.53s.05,1.25.05,1.88,0,1.24-.05,1.83-.05,1.09-.05,1.48,0,.89,0,1.68-.05,1.63-.05,2.52v2.43a3.39,3.39,0,0,0,.1,1.18c0,.66,0,1.39-.1,2.18a7.53,7.53,0,0,0,0,1.68l.1,3.16a9.74,9.74,0,0,1,0,2.18,16.63,16.63,0,0,0,0,3.36,12.14,12.14,0,0,1,.05,2c0,.89-.06,1.81-.1,2.76s-.06,1.85-.1,2.67-.05,1.4-.05,1.73a11.9,11.9,0,0,1-.64,3.81c-.43,1.29-.81,2.55-1.13,3.81-.34.66-.66,1.28-1,1.88a11,11,0,0,1-1.49,2c-.26.33-.56.74-.89,1.24a8.27,8.27,0,0,1-1,1.23,6.66,6.66,0,0,1-1.73,1.54,6,6,0,0,0-1.73,1.63,3.76,3.76,0,0,1-1.68,1c-.79.26-1.35.42-1.68.49l-3.46,1.19a12.58,12.58,0,0,1-1.83.84,8.32,8.32,0,0,1-2.32.44,1.41,1.41,0,0,1-.4-.05.59.59,0,0,0-.39.05,4.69,4.69,0,0,0-1.63.25,4.73,4.73,0,0,1-1.63.25h-.6c-.92,0-1.53,0-1.83-.05a15.16,15.16,0,0,0-2.12.05,4.18,4.18,0,0,0-.6.1c-.33.06-.49,0-.49-.1,0-1.25-.05-2.41-.15-3.46s-.15-2.08-.15-3.07l.7-.59H170a9.87,9.87,0,0,1,2.52-.59,11.88,11.88,0,0,0,2.62-.6c.92-.59,1.76-1.18,2.52-1.78a9.08,9.08,0,0,1,2.52-1.38c.66-.59,1.29-1.2,1.88-1.83a8.23,8.23,0,0,0,1.38-1.93,4,4,0,0,0,1.14-1.88,9.1,9.1,0,0,1,.74-2,5.94,5.94,0,0,1,.3-1.83,6.33,6.33,0,0,0,.3-1.93V188.9c0-.33-.1-.4-.3-.2a1.29,1.29,0,0,0-.3.2,7,7,0,0,1-3.26,1c-1.25.1-2.51.14-3.76.14h-.69a9.06,9.06,0,0,1-2.67-.59c-.86-.2-1.58-.39-2.17-.59a12.63,12.63,0,0,1-2-.89,6.5,6.5,0,0,0-.89-.45,20,20,0,0,1-2-1l-1.19-1.39-2.17-2.37a5.69,5.69,0,0,1-.54-1.29c-.17-.52-.38-1.15-.65-1.88-.13-.39-.29-.82-.49-1.28a10.71,10.71,0,0,1-.5-1.48v-8.31a5.24,5.24,0,0,1,.25-1.33,4.8,4.8,0,0,0,.25-1.24.88.88,0,0,1,.1-.4,1.31,1.31,0,0,1,0-.39,2.27,2.27,0,0,0,.05-.5Z"/><path class="cls-1" d="M227.91,178.91v-.29c0-.4.07-1.27.2-2.62a11.67,11.67,0,0,0-.89-5,8.36,8.36,0,0,0-.89-1.68,3.79,3.79,0,0,0-1.88-1.38,10.07,10.07,0,0,1-1.28-.45,2.53,2.53,0,0,0-1.29-.15,7.11,7.11,0,0,0-1.73.89,6.75,6.75,0,0,0-1.73,1.68,2,2,0,0,0-.59,1.09c-.07.4-.13.86-.2,1.39-.2.85-.34,1.51-.44,2a8.75,8.75,0,0,0-.15,1.78,5.49,5.49,0,0,0,1.14,3.46c.75,1,1.23,1.65,1.43,2a1.14,1.14,0,0,0,.54.35,1.8,1.8,0,0,1,.74.54,2.24,2.24,0,0,0,1.88.15c.6-.23,1.25-.51,2-.84h.59a9.61,9.61,0,0,0,1.49-1,4.61,4.61,0,0,0,1.08-1.48v-.4Zm12.76,14.93-.69.1a1.62,1.62,0,0,1-.65.05,4.88,4.88,0,0,0-.94-.05,4.39,4.39,0,0,0-.59.1l-1.09.2a5.91,5.91,0,0,1-1.28,0,3.13,3.13,0,0,1-1.09-.25,1.61,1.61,0,0,1-.69-.1,1.61,1.61,0,0,0-.69-.1,1.58,1.58,0,0,1-.55-1.18c0-.53,0-1,0-1.29V188.9l-.79,1.09-1.78,1.68-1.63,1.13c-.43.3-.94.61-1.53.94a9.15,9.15,0,0,1-3.21,1.19,19,19,0,0,1-3.22.3,9,9,0,0,1-3.11-.6c-1.09-.39-2.06-.76-2.92-1.09a2.16,2.16,0,0,1-.74-.34l-.64-.45a13.69,13.69,0,0,0-1.34-1,8.27,8.27,0,0,1-1.23-1,3.38,3.38,0,0,1-.55-.45,2.48,2.48,0,0,0-.64-.44,2.64,2.64,0,0,1-.89-1,12.15,12.15,0,0,0-1.24-2.13,10,10,0,0,1-1.23-2.42,11.58,11.58,0,0,0-.79-2.08,4.16,4.16,0,0,1-.5-1.87c0-.33,0-.89-.1-1.69s-.09-1.35-.09-1.68c0-.59,0-1.05,0-1.38a13.91,13.91,0,0,0,.05-1.48,3.9,3.9,0,0,1,.15-1c.1-.36.22-.84.35-1.44s.23-1.49.3-2.32a12.6,12.6,0,0,1,.29-2,13.86,13.86,0,0,1,.94-1.58,3.12,3.12,0,0,0,.45-1.09q.19-.58.54-1.53a3,3,0,0,1,1-1.43c.2-.13.49-.36.89-.69s.8-.7,1.23-1.09l1.14-1c.33-.3.56-.44.69-.44l1.78-.79a8.73,8.73,0,0,1,1.78-.45,12.6,12.6,0,0,1,1.88-.15l3.07-.1h1.13a2.36,2.36,0,0,1,.84.1,1.9,1.9,0,0,1,1,.3,1.9,1.9,0,0,0,1,.3A3.1,3.1,0,0,1,226,158a4.31,4.31,0,0,1,1.23.84,4.61,4.61,0,0,1,1.53.94c.37.36.71.71,1,1l.94.94.94.94c0,.2.13.36.4.49a1,1,0,0,1,.29.2,1.24,1.24,0,0,0,.25-.79,2.42,2.42,0,0,1,.35-1.09q.09-1.38.15-2.52a9.84,9.84,0,0,1,.14-1.53,2.54,2.54,0,0,1,.1-1.14c.13-.49.36-.68.69-.54a1.78,1.78,0,0,1,.89,0l1.59.24c.59.1,1.2.19,1.83.25a14.59,14.59,0,0,0,1.63.1c.06,0,.1.16.1.49a2.84,2.84,0,0,1-.1.8l.59,9.49v10.67a4,4,0,0,1,0,.6,3.92,3.92,0,0,0-.05.59,15.54,15.54,0,0,1,.1,1.83v1.93a7.52,7.52,0,0,1,.05,1.43c0,.5-.05,1-.05,1.53s0,.94.05,1.64,0,1.4,0,2.12v4.35Z"/><path class="cls-1" d="M302.17,190.28a28.91,28.91,0,0,0,.09-4.1q-.09-1.83-.09-3.21a14.16,14.16,0,0,1-.4-2.43c-.07-.82-.17-1.59-.3-2.32a12,12,0,0,1-.64-2.82,12.23,12.23,0,0,0-.64-2.82,7.26,7.26,0,0,0-.55-2.81,5.35,5.35,0,0,0-1.92-2.33l-2-.89a4.62,4.62,0,0,0-1.88-.39l-1.63,1a4,4,0,0,0-1.63,1.78c-.33.79-.61,1.5-.84,2.12a7.29,7.29,0,0,1-.74,1.53,4.5,4.5,0,0,0-.6,2.38c0,.92,0,1.74-.1,2.47a8.92,8.92,0,0,1-.1.94c-.06.49-.13,1-.19,1.63s-.14,1.14-.2,1.63a8.92,8.92,0,0,0-.1.94l-.79,5.73c0,.47,0,.91-.05,1.34s-.05.87-.05,1.33a4.68,4.68,0,0,1-.1,1,4.75,4.75,0,0,0-.1,1h-.59a15.51,15.51,0,0,1-2.52.2,29.33,29.33,0,0,1-3.12-.2,7.51,7.51,0,0,1-.84-.2c-.23-.06-.34-.43-.34-1.08s0-1.52-.05-2.18-.05-1.35-.05-2.07c.06-1,.1-2,.1-3a19.93,19.93,0,0,0-.3-3.31,14,14,0,0,0-.3-2.77c-.19-1-.36-1.94-.49-2.87a17.37,17.37,0,0,1-.2-2.62,5.78,5.78,0,0,0-.49-2.42c-.2-.66-.42-1.27-.64-1.83s-.52-1.17-.85-1.83a.6.6,0,0,0-.19-.25.66.66,0,0,1-.2-.14l-.69-.3a7.66,7.66,0,0,0-2.67-1h-.4l-2.17.3a5.82,5.82,0,0,0-3.17,1.38,14.11,14.11,0,0,0-3.75,7.61,4.11,4.11,0,0,0-.7,1.83,15.19,15.19,0,0,1-.29,1.83,14.92,14.92,0,0,0-.25,2.23q0,1.14-.15,2.22a5.06,5.06,0,0,1-.25,1.58,2.54,2.54,0,0,0,0,1.49c0,.13,0,.43-.05.89s-.07.95-.1,1.48-.07,1-.1,1.48-.05.76-.05.89a4.15,4.15,0,0,0-.2,1.58,4.82,4.82,0,0,1-.1,1.39,5.11,5.11,0,0,0-1.14.15c-.42.1-.87.21-1.33.34a3.1,3.1,0,0,1-1.38.1,8.36,8.36,0,0,1-1.49-.3,13.07,13.07,0,0,0-2.17-.29,7,7,0,0,1-1.78-.3c0-.39,0-.9-.05-1.53s-.1-1.29-.2-2-.16-1.37-.2-2,0-1.16,0-1.49,0-.54-.05-1-.06-1-.09-1.58-.09-1.09-.15-1.58a8.3,8.3,0,0,1-.1-1,16.88,16.88,0,0,1-.1-1.78v-1.78c.06-.66.1-1.28.1-1.88v-10c0-.2,0-.71.05-1.53s.06-1.7.1-2.62.06-1.8.1-2.62,0-1.34,0-1.54a10.14,10.14,0,0,0,1.29-.1,11.81,11.81,0,0,1,1.29-.09c.65,0,1.26,0,1.82-.05s1.14-.05,1.73-.05a3.92,3.92,0,0,0,1,0s.14,0,.4,0a3.11,3.11,0,0,1,.25,1.13,2.28,2.28,0,0,0,.14.94c.07.33.15.73.25,1.19a5.75,5.75,0,0,1,.15,1.19v.49a9.7,9.7,0,0,1,1.78-1.43,7.94,7.94,0,0,0,1.38-1,7.88,7.88,0,0,1,2.87-1.48,32.24,32.24,0,0,1,3.36-.7l4.45-.49h.69c1,.2,1.88.41,2.67.64a10.22,10.22,0,0,1,2.48,1.14l2.47,2.17a3,3,0,0,1,.79.7,6.33,6.33,0,0,1,.94.93,6.52,6.52,0,0,1,.84,1.54c.33-.33.62-.65.89-.94s.56-.61.89-.94a2.91,2.91,0,0,1,.54-.4,6.76,6.76,0,0,1,.84-.39,10.18,10.18,0,0,0,1.19-.84,5.67,5.67,0,0,1,1.18-.74,11.41,11.41,0,0,1,1.14-.4,5.43,5.43,0,0,0,1.14-.49,6.27,6.27,0,0,1,4.3-.4c1.28.4,2.55.76,3.81,1.09a6.75,6.75,0,0,1,2.52,1.48,16.89,16.89,0,0,1,2,2.37l1.88,3.76c.33,1,.64,2,.94,2.92a9.66,9.66,0,0,1,.45,2.91c.26,1.26.52,2.53.79,3.81a21.8,21.8,0,0,1,.39,4.3,7.59,7.59,0,0,1,.3,3.26,7.06,7.06,0,0,0,.3,3.17v5.14a2.81,2.81,0,0,0-1.54.35,3.07,3.07,0,0,1-1.63.34,7.09,7.09,0,0,0-1.28.15,6.49,6.49,0,0,0-1.29.35,6.53,6.53,0,0,1-.84,0,.39.39,0,0,1-.34-.45v-2.67Z"/><path class="cls-1" d="M319.17,150.24a6.42,6.42,0,0,1-.05-1.48c0-.66.05-1.35.05-2.08a7.8,7.8,0,0,0-.05-.89,7,7,0,0,1-.05-.79.78.78,0,0,1,.05-.3.69.69,0,0,0,.05-.29h7.12a1.67,1.67,0,0,1,.59.05c.07,0,.1.21.1.54v6.43a12.93,12.93,0,0,1-1.83.1h-2.52c-.86,0-1.63,0-2.32-.05s-1-.12-1-.25a3.34,3.34,0,0,1-.1-1Zm8.41,32.63a21.83,21.83,0,0,1,.09,3.56c-.06,1-.16,2-.29,3a1.2,1.2,0,0,1-.3.89c-.66.14-1.42.25-2.27.35a12,12,0,0,1-2.38.05,6.26,6.26,0,0,0-1.78,0,8.75,8.75,0,0,1-1.28.15,5.25,5.25,0,0,0-.1-1.09,4.53,4.53,0,0,1,0-1.39,9.21,9.21,0,0,0,.05-1.68c0-.59-.05-1.15-.05-1.68V180.2c-.07-1.52-.1-3.07-.1-4.65a30.32,30.32,0,0,0-.1-3.16,6.63,6.63,0,0,1,.05-1.78,10.78,10.78,0,0,0,.15-1.78,26.4,26.4,0,0,1,0-2.82c0-1,0-1.89,0-2.82s0-1.83-.1-3.11a14.87,14.87,0,0,1,.1-3.12,8.51,8.51,0,0,1,2-.19c.79,0,1.64,0,2.57-.1.72-.07,1.45-.1,2.17-.1h1.59c.13,0,.18.18.14.54s-.05.61-.05.74c-.06,1.65-.06,3.08,0,4.3a24.53,24.53,0,0,1-.09,3.81c.06,1.32.08,2.46,0,3.41s-.11,2.09-.24,3.41v1.58c0,.86,0,1.83.1,2.92s.1,2.14.1,3.16v2.43Z"/><path class="cls-1" d="M337.86,157.75a2.09,2.09,0,0,0-.1-.59.86.86,0,0,1,0-.59l.34,0a2.68,2.68,0,0,1,.45-.05h.59a3.3,3.3,0,0,1,1-.05,3.3,3.3,0,0,0,1,0h3a.57.57,0,0,1,.39.2l.3.29.2.89a3.27,3.27,0,0,0,.09.7,6.45,6.45,0,0,1,.2,1.68,1.7,1.7,0,0,1,.1.59c0,.4,0,.59.1.59a2.74,2.74,0,0,0,.59-.84,1.45,1.45,0,0,1,.5-.64,3.91,3.91,0,0,1,.44-.4l.3-.19a4.56,4.56,0,0,1,.44-.25,9.16,9.16,0,0,0,.89-.54,13.32,13.32,0,0,1,1.64-.79c.49-.2,1.26-.56,2.32-1.09.2-.07.54-.17,1-.3s1-.25,1.63-.35a17.69,17.69,0,0,1,1.83-.19c.62,0,1.17,0,1.63,0a16.5,16.5,0,0,1,1.78.24c.46.1,1.09.22,1.88.35.33.07.87.13,1.63.2a4.43,4.43,0,0,1,1.53.3q2.47,1.38,4,2.37a9.26,9.26,0,0,1,2.57,2.67,3.32,3.32,0,0,0,.59.44,5.28,5.28,0,0,1,1.83,2.08,3.48,3.48,0,0,1,.44,1,14.44,14.44,0,0,0,.89,2.72,7.4,7.4,0,0,1,.6,2.71,6.43,6.43,0,0,0,.49,1.73,5,5,0,0,1,.4,1.93c0,.66,0,1.4.1,2.23a23.66,23.66,0,0,1-.1,3.51,12.8,12.8,0,0,0,.05,1.28c0,.4.05.79.05,1.19v5.83a8,8,0,0,1-.1,1.19c0,.53,0,1,.05,1.38s.05.86.05,1.39v.44a.36.36,0,0,1-.2.35,1.35,1.35,0,0,1-.55.1h-.54c-.59,0-1.15,0-1.68.05a10.69,10.69,0,0,1-1.68-.05l-3-.3a2.8,2.8,0,0,0-1.09,0c-.46.07-.75,0-.89-.3-.06-1.51-.08-2.58,0-3.21s0-1.2,0-1.73a10.73,10.73,0,0,0-.09-1.24c-.07-.49-.14-1.17-.2-2l.29-5.24c0-.66,0-1.17,0-1.53s-.07-.66-.1-.89-.07-.51-.1-.85a15.15,15.15,0,0,1-.05-1.58,10.67,10.67,0,0,0-.64-3.56,33,33,0,0,0-1.54-3.56,7.18,7.18,0,0,0-1.28-1.78,7.38,7.38,0,0,0-2.08-1.38l-.49-.2a1.9,1.9,0,0,0-.5-.1l-2.27-.19a8.1,8.1,0,0,0-3.46.59,4.38,4.38,0,0,0-2.18,1.38c-.46.79-.82,1.39-1.08,1.78l-.79,1.19c-.07.2-.17.54-.3,1s-.28,1.09-.45,1.78-.31,1.42-.44,2.17a12.27,12.27,0,0,0-.2,2V177a7.16,7.16,0,0,1-.1,1.24l-.2,2.77-.59,3.76v2.12a20.3,20.3,0,0,1-.1,2.13v2.27a1.93,1.93,0,0,1-1,.4,7.73,7.73,0,0,0-1.53.39,3.73,3.73,0,0,1-1.63.1,16.74,16.74,0,0,0-2.87.05,11.44,11.44,0,0,1-2.87-.05,4.2,4.2,0,0,1-1.08-.25v-.54c0-.26,0-.68.05-1.24s0-1.15,0-1.78,0-1.23.05-1.82,0-1.06,0-1.39c0-1.19,0-2.17-.09-3s-.1-1.77-.1-3c0-1,0-1.8-.05-2.42s-.09-1.44-.15-2.43c0-.52,0-1.2.1-2s.1-1.7.1-2.62c0-1.12,0-2.21-.05-3.27s-.05-1.84-.05-2.37c-.07-1.12-.1-2.19-.1-3.21a23.78,23.78,0,0,1,.2-3.12Z"/><path class="cls-1" d="M401.33,175.55a4.11,4.11,0,0,0,.94-.1,2,2,0,0,0,.94-.59,1.52,1.52,0,0,0,.15-.84.7.7,0,0,1,.15-.64q.5-.8.39-1a1.81,1.81,0,0,1-.1-.7,3.06,3.06,0,0,0-.34-1.23,4.22,4.22,0,0,0-.84-1.24c-.33-.33-.56-.49-.7-.49a5.6,5.6,0,0,0-1.28.49,4.22,4.22,0,0,0-.69,2.87c0,.13,0,.43-.05.89a3.06,3.06,0,0,0,.15,1.29c0,.13.16.38.49.74s.59.54.79.54Zm-15.22-10.88a7.46,7.46,0,0,1,.34-1.28,5.44,5.44,0,0,1,.45-1.19,7.78,7.78,0,0,0,.29-.84,4.38,4.38,0,0,1,.6-1c.26-.32.6-.72,1-1.18a8.82,8.82,0,0,0,.84-1,7.29,7.29,0,0,1,.89-1.09,4.79,4.79,0,0,1,1.19-1,7.22,7.22,0,0,0,1.29-1c.92-.26,1.73-.52,2.42-.79a5.75,5.75,0,0,1,2-.39c1.31,0,2.58,0,3.8.1a11.13,11.13,0,0,1,3.21.59,7.63,7.63,0,0,1,2.48.35,16.63,16.63,0,0,1,2,.84,3.91,3.91,0,0,0,1.29,1.53,9.51,9.51,0,0,1,1.29,1l.59.59a1.24,1.24,0,0,0,.64-1.09,2.41,2.41,0,0,1,.15-1.08,3.49,3.49,0,0,0,.2-1,.92.92,0,0,1,.19-.65,1.74,1.74,0,0,1,.7-.05,5.16,5.16,0,0,0,.79.05c.59,0,1.35,0,2.27-.09a6.45,6.45,0,0,1,2.08.09,1.37,1.37,0,0,1,.39.35.8.8,0,0,1,.2.35v.69c0,.39,0,.91,0,1.53s.05,1.25.05,1.88,0,1.24-.05,1.83,0,1.09,0,1.48,0,.89-.05,1.68-.05,1.63-.05,2.52v2.43a3.12,3.12,0,0,0,.1,1.18c0,.66,0,1.39-.1,2.18a7.53,7.53,0,0,0,0,1.68l.1,3.16a9.74,9.74,0,0,1-.05,2.18,16.63,16.63,0,0,0,.05,3.36,12.14,12.14,0,0,1,0,2c0,.89-.07,1.81-.1,2.76s-.06,1.85-.1,2.67-.05,1.4-.05,1.73a11.9,11.9,0,0,1-.64,3.81c-.43,1.29-.81,2.55-1.14,3.81-.33.66-.66,1.28-1,1.88a11.44,11.44,0,0,1-1.49,2c-.26.33-.56.74-.89,1.24a8.27,8.27,0,0,1-1,1.23,6.66,6.66,0,0,1-1.73,1.54,6,6,0,0,0-1.73,1.63,3.76,3.76,0,0,1-1.68,1c-.79.26-1.35.42-1.68.49l-3.46,1.19a12.58,12.58,0,0,1-1.83.84,8.4,8.4,0,0,1-2.32.44,1.37,1.37,0,0,1-.4-.05.59.59,0,0,0-.39.05,4.65,4.65,0,0,0-1.63.25,4.75,4.75,0,0,1-1.64.25h-.59c-.92,0-1.53,0-1.83-.05a15.16,15.16,0,0,0-2.12.05,4.18,4.18,0,0,0-.6.1c-.33.06-.49,0-.49-.1,0-1.25,0-2.41-.15-3.46s-.15-2.08-.15-3.07l.69-.59H393a9.87,9.87,0,0,1,2.52-.59,12,12,0,0,0,2.62-.6c.92-.59,1.76-1.18,2.52-1.78a9.08,9.08,0,0,1,2.52-1.38c.66-.59,1.28-1.2,1.88-1.83a8.23,8.23,0,0,0,1.38-1.93,4.05,4.05,0,0,0,1.14-1.88,9.1,9.1,0,0,1,.74-2,5.94,5.94,0,0,1,.3-1.83,6.32,6.32,0,0,0,.29-1.93V188.9c0-.33-.09-.4-.29-.2a1.11,1.11,0,0,0-.3.2,7,7,0,0,1-3.26,1c-1.25.1-2.51.14-3.76.14h-.69a9.06,9.06,0,0,1-2.67-.59c-.86-.2-1.58-.39-2.18-.59a13,13,0,0,1-2-.89,6.5,6.5,0,0,0-.89-.45,20,20,0,0,1-2-1l-1.19-1.39-2.17-2.37a6.15,6.15,0,0,1-.55-1.29c-.16-.52-.38-1.15-.64-1.88-.13-.39-.29-.82-.49-1.28a9.53,9.53,0,0,1-.5-1.48v-8.31a5.24,5.24,0,0,1,.25-1.33,5.28,5.28,0,0,0,.25-1.24.88.88,0,0,1,.1-.4,1.31,1.31,0,0,1,.05-.39,2.27,2.27,0,0,0,.05-.5Z"/><polygon class="cls-1" points="583.67 134.71 558.59 116.35 562.24 126.95 545.92 132.09 56.01 132.09 32.63 114.97 36.29 126.31 43.9 132.09 40.1 132.09 16.72 114.97 20.38 126.31 27.99 132.09 23.39 132.09 0 114.97 3.66 126.31 14.58 134.6 3.66 142.89 0 154.24 3.65 143.63 0 154.24 23.07 137.34 27.69 137.34 20.38 142.89 16.72 154.24 20.37 143.63 16.72 154.24 39.79 137.34 43.6 137.34 36.29 142.89 32.63 154.24 36.27 143.63 32.63 154.24 55.7 137.34 545.92 137.34 562.24 142.48 558.59 153.08 583.67 134.72 583.64 134.72 583.67 134.71 583.67 134.71"/></g></g></svg>