<svg xmlns="http://www.w3.org/2000/svg" viewBox="0 0 407.45 519.79"><defs><style>.cls-1{fill:#774a21;}.cls-2{fill:#482e17;}.cls-3{fill:#7f5324;}</style></defs><g id="Layer_2" data-name="Layer 2"><g id="Layer_2-2" data-name="Layer 2"><path class="cls-1" d="M115.36,519.79V116.52q3.28-38.86,6.55-77.73L139.15,0l39.21,1.16,17.19,36,6.54,67.09v54.08L215.18,144l62.18,6.6,4.09,21.45,9.82-17.92,61.37,17.92v24.75l9.81-15.4s45,37.74,45,39.6-8.18,200.6-8.18,200.6l-69.54,72.89-4.09,25.27Z"/><polygon class="cls-2" points="128.46 245.23 151.36 254.58 184.91 244.13 163.64 285.4 141.55 289.23 128.46 245.23"/><polygon class="cls-2" points="205.36 245.23 230.73 260.63 261.41 248.53 246.27 289.23 225.8 291.43 205.36 273.83 205.36 245.23"/><polygon class="cls-2" points="287.18 254.58 298.64 268.33 331.36 263.93 317.45 299.68 290.45 299.68 277.36 281.53 287.18 254.58"/><polygon class="cls-2" points="357.55 273.83 381.27 291.43 364.91 314.53 346.91 310.18 357.55 273.83"/><polygon class="cls-2" points="62.18 307.93 102.27 332.08 110.45 373.88 76.91 340.9 62.18 307.93"/><path class="cls-1" d="M5.72,196.81l36-9.93,58.91,45,24.54,54q4.09,47.06,8.18,94.11l-8.18,57.84L49.91,352.48Q47.95,330.75,46,309L15.55,260.63,0,238.63Q2.87,217.72,5.72,196.81Z"/><polygon class="cls-3" points="215.18 144.03 209.86 166.02 242.18 163.56 281.45 172.08 277.36 150.63 215.18 144.03"/><polygon class="cls-3" points="291.27 154.16 352.64 172.08 352.64 196.83 321.95 178.29 281.45 172.08 291.27 154.16"/><polygon class="cls-3" points="362.45 181.43 407.45 221.03 406.42 247.04 381.27 217.56 352.64 196.83 362.45 181.43"/><polygon class="cls-3" points="139.15 0 121.91 38.79 115.36 116.52 156.68 102.61 202.09 104.25 195.54 37.16 178.36 1.16 139.15 0"/><polygon class="cls-3" points="5.72 196.81 32.73 209.23 76.36 244.13 115.36 273.83 115.77 264.34 100.64 231.88 41.73 186.88 5.72 196.81"/><polygon class="cls-2" points="71.18 360.75 60.75 299.68 0 238.63 45.97 309 49.91 352.48 114.55 425.79 115.36 519.79 128.46 519.79 128.46 409.43 71.18 360.75"/><polygon class="cls-2" points="328.09 458.22 308.45 499.43 162.82 499.43 128.46 409.43 128.46 519.79 325.64 519.79 329.73 494.52 399.27 421.63 328.09 458.22"/></g></g></svg>